<?xml version="1.0" encoding="UTF-8"?>
<!DOCTYPE svg PUBLIC "-//W3C//DTD SVG 1.1//EN" "http://www.w3.org/Graphics/SVG/1.1/DTD/svg11.dtd">
<svg xmlns="http://www.w3.org/2000/svg" version="1.1" width="1024px" height="1024px" style="shape-rendering:geometricPrecision; text-rendering:geometricPrecision; image-rendering:optimizeQuality; fill-rule:evenodd; clip-rule:evenodd" xmlns:xlink="http://www.w3.org/1999/xlink">
<g><path style="opacity:0.998" fill="#d73f22" d="M 975.5,48.5 C 960.826,98.3313 941.326,146.331 917,192.5C 890.681,240.928 861.848,287.595 830.5,332.5C 772.841,304.176 728.508,261.842 697.5,205.5C 697.511,203.983 698.177,202.816 699.5,202C 749.128,163.735 801.462,129.402 856.5,99C 863,95.1667 868.167,90 872,83.5C 873.351,77.1559 870.851,72.9892 864.5,71C 855.657,70.3003 846.99,71.3003 838.5,74C 781.534,94.3073 729.2,122.641 681.5,159C 680.552,159.483 679.552,159.649 678.5,159.5C 676.429,149.266 675.096,138.933 674.5,128.5C 683.177,121.306 692.51,114.806 702.5,109C 749.891,81.6403 799.891,60.307 852.5,45C 877.118,38.7977 902.118,35.2977 927.5,34.5C 941.704,34.2002 955.37,36.7002 968.5,42C 971.331,43.6657 973.664,45.8324 975.5,48.5 Z"/></g>
<g><path style="opacity:0.993" fill="#a02422" d="M 975.5,48.5 C 980.275,54.3782 983.775,61.0448 986,68.5C 991.467,89.9012 992.8,111.568 990,133.5C 986.123,164.341 978.79,194.341 968,223.5C 955.375,258.747 940.042,292.747 922,325.5C 915.885,336.087 909.052,346.087 901.5,355.5C 891.089,353.764 880.756,351.598 870.5,349C 857.034,344.098 843.701,338.931 830.5,333.5C 830.5,333.167 830.5,332.833 830.5,332.5C 861.848,287.595 890.681,240.928 917,192.5C 941.326,146.331 960.826,98.3313 975.5,48.5 Z"/></g>
<g><path style="opacity:0.958" fill="#fefffe" d="M 458.5,65.5 C 461.325,66.2741 463.492,67.9408 465,70.5C 468.926,77.7784 471.759,85.4451 473.5,93.5C 483.598,93.864 493.598,95.0306 503.5,97C 504.574,97.7387 505.241,98.7387 505.5,100C 504.389,103.055 502.889,105.888 501,108.5C 495.985,113.348 491.152,118.348 486.5,123.5C 489.909,133.279 490.909,143.279 489.5,153.5C 488.833,153.833 488.167,154.167 487.5,154.5C 478.276,151.806 469.443,148.139 461,143.5C 454.931,147.12 448.764,150.62 442.5,154C 429.862,159.876 425.362,156.043 429,142.5C 430.451,135.86 432.284,129.36 434.5,123C 425.475,116.642 417.809,108.975 411.5,100C 413.732,97.0486 416.732,95.382 420.5,95C 428.277,94.3106 435.944,93.8106 443.5,93.5C 446.989,83.1784 451.989,73.8451 458.5,65.5 Z"/></g>
<g><path style="opacity:1" fill="#ec6964" d="M 697.5,205.5 C 696.833,205.5 696.5,205.167 696.5,204.5C 689.458,190.706 683.791,176.372 679.5,161.5C 679.167,160.833 678.833,160.167 678.5,159.5C 679.552,159.649 680.552,159.483 681.5,159C 729.2,122.641 781.534,94.3073 838.5,74C 846.99,71.3003 855.657,70.3003 864.5,71C 870.851,72.9892 873.351,77.1559 872,83.5C 868.167,90 863,95.1667 856.5,99C 801.462,129.402 749.128,163.735 699.5,202C 698.177,202.816 697.511,203.983 697.5,205.5 Z"/></g>
<g><path style="opacity:0.999" fill="#8dafbe" d="M 674.5,128.5 C 675.096,138.933 676.429,149.266 678.5,159.5C 678.833,160.167 679.167,160.833 679.5,161.5C 675.738,163.413 672.071,165.579 668.5,168C 601.176,218.629 538.009,274.462 479,335.5C 469.333,346.5 459.667,357.5 450,368.5C 443.534,380.548 442.868,392.881 448,405.5C 454.756,413.461 462.589,414.628 471.5,409C 510.862,367.971 551.196,327.971 592.5,289C 626.171,259.484 660.838,231.318 696.5,204.5C 696.5,205.167 696.833,205.5 697.5,205.5C 728.508,261.842 772.841,304.176 830.5,332.5C 830.5,332.833 830.5,333.167 830.5,333.5C 774.832,414.378 712.165,489.878 642.5,560C 623.89,578.117 604.557,595.284 584.5,611.5C 534.498,586.191 492.665,550.857 459,505.5C 428.597,462.806 409.43,415.473 401.5,363.5C 478.528,278.268 563.861,203.101 657.5,138C 662.898,134.302 668.565,131.136 674.5,128.5 Z"/></g>
<g><path style="opacity:1" fill="#b2e0ed" d="M 679.5,161.5 C 683.791,176.372 689.458,190.706 696.5,204.5C 660.838,231.318 626.171,259.484 592.5,289C 551.196,327.971 510.862,367.971 471.5,409C 462.589,414.628 454.756,413.461 448,405.5C 442.868,392.881 443.534,380.548 450,368.5C 459.667,357.5 469.333,346.5 479,335.5C 538.009,274.462 601.176,218.629 668.5,168C 672.071,165.579 675.738,163.413 679.5,161.5 Z"/></g>
<g><path style="opacity:0.469" fill="#fefffe" d="M 332.5,280.5 C 349.973,279.779 356.14,287.779 351,304.5C 343.9,311.449 336.066,312.282 327.5,307C 322.78,300.19 322.28,293.023 326,285.5C 327.965,283.45 330.132,281.783 332.5,280.5 Z"/></g>
<g><path style="opacity:1" fill="#dfe0e0" d="M 636.5,287.5 C 677.216,284.112 709.049,299.112 732,332.5C 743.57,352.017 747.57,373.017 744,395.5C 733.19,444.816 702.69,471.483 652.5,475.5C 600.457,471.743 568.957,444.409 558,393.5C 555.287,336.536 581.454,301.203 636.5,287.5 Z"/></g>
<g><path style="opacity:0.938" fill="#fefffe" d="M 161.5,289.5 C 175.084,288.191 182.918,294.191 185,307.5C 186.434,320.068 180.934,327.568 168.5,330C 155.897,332.064 148.064,326.897 145,314.5C 144.026,301.758 149.526,293.425 161.5,289.5 Z"/></g>
<g><path style="opacity:1" fill="#3f545f" d="M 642.5,313.5 C 671.407,312.536 693.907,323.869 710,347.5C 723.115,375.215 720.782,401.548 703,426.5C 681.247,449.271 655.414,455.438 625.5,445C 593.9,430.318 580.066,405.484 584,370.5C 591.215,338.784 610.715,319.784 642.5,313.5 Z"/></g>
<g><path style="opacity:0.996" fill="#437687" d="M 830.5,333.5 C 843.701,338.931 857.034,344.098 870.5,349C 880.756,351.598 891.089,353.764 901.5,355.5C 832.113,461.609 749.78,557.276 654.5,642.5C 630.544,634.195 607.211,624.195 584.5,612.5C 584.5,612.167 584.5,611.833 584.5,611.5C 604.557,595.284 623.89,578.117 642.5,560C 712.165,489.878 774.832,414.378 830.5,333.5 Z"/></g>
<g><path style="opacity:1" fill="#6896a5" d="M 401.5,363.5 C 409.43,415.473 428.597,462.806 459,505.5C 492.665,550.857 534.498,586.191 584.5,611.5C 584.5,611.833 584.5,612.167 584.5,612.5C 571.5,622.5 558.5,632.5 545.5,642.5C 545.167,642.5 544.833,642.5 544.5,642.5C 512.493,625.662 483.493,604.662 457.5,579.5C 457.472,576.084 456.472,573.084 454.5,570.5C 451.765,567.799 448.431,566.132 444.5,565.5C 412.116,525.75 388.283,481.084 373,431.5C 370.2,422.3 368.033,412.967 366.5,403.5C 377.45,389.549 389.117,376.216 401.5,363.5 Z"/></g>
<g><path style="opacity:1" fill="#8daebe" d="M 366.5,403.5 C 368.033,412.967 370.2,422.3 373,431.5C 388.283,481.084 412.116,525.75 444.5,565.5C 437.301,565.44 430.301,566.606 423.5,569C 402.827,579.36 383.494,591.693 365.5,606C 347.282,621.271 329.282,636.771 311.5,652.5C 299.712,635.13 292.045,616.13 288.5,595.5C 288.5,592.167 288.5,588.833 288.5,585.5C 288.542,554.546 294.709,524.879 307,496.5C 314.095,481.303 321.928,466.636 330.5,452.5C 341.155,437.871 351.821,423.205 362.5,408.5C 363.864,406.809 365.197,405.142 366.5,403.5 Z"/></g>
<g><path style="opacity:0.994" fill="#c92c31" d="M 362.5,408.5 C 351.821,423.205 341.155,437.871 330.5,452.5C 281.06,460.301 231.727,468.801 182.5,478C 135.595,521.41 88.2616,564.243 40.5,606.5C 36.2694,595.313 32.7694,583.98 30,572.5C 73.1391,530.361 115.972,487.861 158.5,445C 226.387,432.296 294.387,420.13 362.5,408.5 Z"/></g>
<g><path style="opacity:0.997" fill="#a02422" d="M 330.5,452.5 C 321.928,466.636 314.095,481.303 307,496.5C 294.709,524.879 288.542,554.546 288.5,585.5C 241.006,609.747 193.339,633.747 145.5,657.5C 110.143,641.058 75.1429,624.058 40.5,606.5C 88.2616,564.243 135.595,521.41 182.5,478C 231.727,468.801 281.06,460.301 330.5,452.5 Z"/></g>
<g><path style="opacity:1" fill="#b2e0ed" d="M 346.5,486.5 C 356.741,485.907 362.074,490.741 362.5,501C 360.318,519.553 353.818,536.387 343,551.5C 337.561,557.806 330.727,560.639 322.5,560C 318.915,558.084 316.415,555.251 315,551.5C 312.727,523.383 323.227,501.717 346.5,486.5 Z"/></g>
<g><path style="opacity:0.929" fill="#fefffe" d="M 893.5,517.5 C 911.206,517.032 918.039,525.366 914,542.5C 908.451,549.683 901.284,551.85 892.5,549C 888.749,547.585 885.916,545.085 884,541.5C 879.771,530.321 882.938,522.321 893.5,517.5 Z"/></g>
<g><path style="opacity:1" fill="#c92c31" d="M 444.5,565.5 C 448.431,566.132 451.765,567.799 454.5,570.5C 364.832,660.835 275.499,751.501 186.5,842.5C 178.777,836.063 173.277,828.063 170,818.5C 169.238,813 170.572,808 174,803.5C 186.034,786.109 199.034,769.442 213,753.5C 230.942,733.943 249.109,714.61 267.5,695.5C 282.193,681.139 296.86,666.806 311.5,652.5C 329.282,636.771 347.282,621.271 365.5,606C 383.494,591.693 402.827,579.36 423.5,569C 430.301,566.606 437.301,565.44 444.5,565.5 Z"/></g>
<g><path style="opacity:1" fill="#a02524" d="M 454.5,570.5 C 456.472,573.084 457.472,576.084 457.5,579.5C 456.028,599.417 449.861,617.751 439,634.5C 419.84,661.809 399.006,687.809 376.5,712.5C 362.564,728.44 348.23,744.107 333.5,759.5C 298.36,795.155 260.694,827.655 220.5,857C 217.783,859.076 214.783,859.743 211.5,859C 202.106,854.979 193.772,849.479 186.5,842.5C 275.499,751.501 364.832,660.835 454.5,570.5 Z"/></g>
<g><path style="opacity:1" fill="#8caebe" d="M 457.5,579.5 C 483.493,604.662 512.493,625.662 544.5,642.5C 506.037,673.408 464.704,700.241 420.5,723C 414.239,725.476 407.906,727.642 401.5,729.5C 393.816,725.989 386.482,721.823 379.5,717C 377.561,716.092 376.561,714.592 376.5,712.5C 399.006,687.809 419.84,661.809 439,634.5C 449.861,617.751 456.028,599.417 457.5,579.5 Z"/></g>
<g><path style="opacity:0.992" fill="#858584" d="M 288.5,595.5 C 292.045,616.13 299.712,635.13 311.5,652.5C 296.86,666.806 282.193,681.139 267.5,695.5C 265.417,691 263.084,686.666 260.5,682.5C 254.94,670.15 250.606,657.484 247.5,644.5C 251.629,635.863 256.796,627.863 263,620.5C 271.395,611.937 279.895,603.604 288.5,595.5 Z"/></g>
<g><path style="opacity:1" fill="#3f545f" d="M 584.5,612.5 C 607.211,624.195 630.544,634.195 654.5,642.5C 644.445,652.222 633.778,661.222 622.5,669.5C 619.833,671.5 617.167,673.5 614.5,675.5C 602.389,670.066 590.056,664.899 577.5,660C 566.291,654.9 555.624,649.067 545.5,642.5C 558.5,632.5 571.5,622.5 584.5,612.5 Z"/></g>
<g><path style="opacity:0.999" fill="#437586" d="M 544.5,642.5 C 544.833,642.5 545.167,642.5 545.5,642.5C 555.624,649.067 566.291,654.9 577.5,660C 590.056,664.899 602.389,670.066 614.5,675.5C 576.625,705.104 534.292,726.271 487.5,739C 473.65,741.943 459.65,743.109 445.5,742.5C 441.821,742.276 438.154,741.942 434.5,741.5C 422.769,739.479 411.769,735.479 401.5,729.5C 407.906,727.642 414.239,725.476 420.5,723C 464.704,700.241 506.037,673.408 544.5,642.5 Z"/></g>
<g><path style="opacity:0.989" fill="#f7d74d" d="M 247.5,644.5 C 250.606,657.484 254.94,670.15 260.5,682.5C 233.332,689.839 210.498,704.172 192,725.5C 157.859,771.126 133.859,821.793 120,877.5C 119.501,881.821 119.334,886.154 119.5,890.5C 122.518,890.665 125.518,890.498 128.5,890C 148.783,884.846 169.116,879.846 189.5,875C 199.794,872.315 210.127,871.982 220.5,874C 225.794,878.941 227.96,885.108 227,892.5C 227.5,893 228,893.5 228.5,894C 242.458,894.572 255.458,891.239 267.5,884C 298.478,864.689 322.978,839.189 341,807.5C 346.223,795.65 350.723,783.65 354.5,771.5C 366.602,777.202 379.268,780.868 392.5,782.5C 387.594,811.974 375.428,837.974 356,860.5C 322.698,899.913 280.865,925.746 230.5,938C 216.136,941.378 201.636,942.211 187,940.5C 181.884,940.061 179.884,937.395 181,932.5C 182.961,929.537 185.294,926.871 188,924.5C 190.534,921.107 192.201,917.441 193,913.5C 152.608,927.95 111.108,933.117 68.5,929C 59.0903,926.973 55.5903,921.473 58,912.5C 65.8234,904.345 72.4901,895.345 78,885.5C 87.2288,854.251 97.2288,823.251 108,792.5C 120.962,756.608 139.295,723.941 163,694.5C 179.331,676.159 198.497,661.659 220.5,651C 229.175,647.414 238.175,645.248 247.5,644.5 Z"/></g>
<g><path style="opacity:0.99" fill="#a02422" d="M 622.5,669.5 C 613.749,737.253 604.583,804.92 595,872.5C 557.167,915 519.333,957.5 481.5,1000C 468.955,1000.29 456.622,999.461 444.5,997.5C 484.801,952.361 524.968,907.027 565,861.5C 569.275,825.481 573.275,789.481 577,753.5C 549.042,770.229 519.876,784.396 489.5,796C 476.905,799.815 464.239,803.315 451.5,806.5C 433.806,837.896 416.139,869.229 398.5,900.5C 394.108,892.046 389.941,883.38 386,874.5C 385.333,872.833 385.333,871.167 386,869.5C 405.845,827.145 425.678,784.812 445.5,742.5C 459.65,743.109 473.65,741.943 487.5,739C 534.292,726.271 576.625,705.104 614.5,675.5C 617.167,673.5 619.833,671.5 622.5,669.5 Z"/></g>
<g><path style="opacity:1" fill="#faefb3" d="M 260.5,682.5 C 263.084,686.666 265.417,691 267.5,695.5C 249.109,714.61 230.942,733.943 213,753.5C 199.034,769.442 186.034,786.109 174,803.5C 170.572,808 169.238,813 170,818.5C 173.277,828.063 178.777,836.063 186.5,842.5C 193.772,849.479 202.106,854.979 211.5,859C 214.783,859.743 217.783,859.076 220.5,857C 260.694,827.655 298.36,795.155 333.5,759.5C 340.437,763.796 347.437,767.796 354.5,771.5C 350.723,783.65 346.223,795.65 341,807.5C 322.978,839.189 298.478,864.689 267.5,884C 255.458,891.239 242.458,894.572 228.5,894C 228,893.5 227.5,893 227,892.5C 227.96,885.108 225.794,878.941 220.5,874C 210.127,871.982 199.794,872.315 189.5,875C 169.116,879.846 148.783,884.846 128.5,890C 125.518,890.498 122.518,890.665 119.5,890.5C 119.334,886.154 119.501,881.821 120,877.5C 133.859,821.793 157.859,771.126 192,725.5C 210.498,704.172 233.332,689.839 260.5,682.5 Z"/></g>
<g><path style="opacity:0.994" fill="#858584" d="M 376.5,712.5 C 376.561,714.592 377.561,716.092 379.5,717C 386.482,721.823 393.816,725.989 401.5,729.5C 411.769,735.479 422.769,739.479 434.5,741.5C 421.825,756.508 407.825,770.175 392.5,782.5C 379.268,780.868 366.602,777.202 354.5,771.5C 347.437,767.796 340.437,763.796 333.5,759.5C 348.23,744.107 362.564,728.44 376.5,712.5 Z"/></g>
<g><path style="opacity:0.932" fill="#fefffe" d="M 781.5,729.5 C 794.638,728.964 801.971,735.297 803.5,748.5C 802.085,758.913 796.085,764.579 785.5,765.5C 774.072,764.339 767.738,758.006 766.5,746.5C 766.492,741.351 768.492,737.185 772.5,734C 775.592,732.454 778.592,730.954 781.5,729.5 Z"/></g>
<g><path style="opacity:1" fill="#c92b30" d="M 444.5,997.5 C 427.303,966.104 411.97,933.77 398.5,900.5C 416.139,869.229 433.806,837.896 451.5,806.5C 464.239,803.315 476.905,799.815 489.5,796C 519.876,784.396 549.042,770.229 577,753.5C 573.275,789.481 569.275,825.481 565,861.5C 524.968,907.027 484.801,952.361 444.5,997.5 Z"/></g>
</svg>
